<?xml version="1.0" encoding="UTF-8"?>
<svg fill="#14AD62" width="100pt" height="100pt" version="1.1" viewBox="0 0 100 100" xmlns="http://www.w3.org/2000/svg">
 <path d="m70.883 29.973c-1.3008 0.046875-2.5352 0.59375-3.4375 1.5312-9.5781 9.5977-16.891 17.613-25.781 26.688l-9.4688-8c-1.0117-0.85547-2.3281-1.2734-3.6523-1.1641-1.3242 0.11328-2.5469 0.75-3.4023 1.7656-0.85547 1.0195-1.2734 2.332-1.1562 3.6562s0.75391 2.5469 1.7734 3.3984l13 11c1.9844 1.6719 4.9141 1.5508 6.75-0.28125 10.77-10.793 18.438-19.414 29-30 1.4844-1.4336 1.9375-3.6328 1.1328-5.5352-0.80078-1.9062-2.6914-3.1172-4.7578-3.0586z"/>
</svg>
