<?xml version="1.0" encoding="UTF-8"?>
<svg fill="#14AD62" width="100pt" height="100pt" version="1.1" viewBox="0 0 100 100" xmlns="http://www.w3.org/2000/svg">
 <path d="m88.441 49.602l-13.062-22.98c-0.41406-0.68359-1.2812-0.9375-2-0.58203l-6 3.4219c-0.74219 0.42578-1 1.3711-0.57812 2.1172l1.1992 2.4219c-0.84766 0.58203-1.8789 0.83203-2.8984 0.69922-0.94922-0.14062-1.8867-0.35547-2.8008-0.64062-4.3984-1.1797-11.738-3.1797-18.941 0-1.375 0.57422-2.6523 1.3633-3.7812 2.3398-0.66016 0-2-0.23828-3.3789-0.44141v0.003907c-1.418-0.57031-2.707-1.4297-3.7773-2.5195l0.83984-1.4805c0.42188-0.74609 0.16016-1.6953-0.58203-2.1211l-6-3.4219v0.003906c-0.35938-0.20703-0.78516-0.25781-1.1797-0.14062-0.39844 0.097656-0.74219 0.35938-0.94141 0.71875l-13.02 23c-0.20312 0.35938-0.25391 0.78516-0.14062 1.1797 0.10156 0.39844 0.35937 0.74219 0.72266 0.94141l6 3.4219v-0.003907c0.23047 0.13281 0.49219 0.20313 0.75781 0.19922 0.14062 0.019531 0.28125 0.019531 0.42188 0 0.39844-0.097656 0.73828-0.35938 0.9375-0.71875l1.4219-2.4805c1.1758 1.5547 2.4531 3.0312 3.8203 4.4219l-0.32031 0.46094c-0.46875 0.66797-0.71875 1.4609-0.71875 2.2773 0 1.2852 0.61719 2.4883 1.6602 3.2422 0.65625 0.48438 1.457 0.74609 2.2773 0.73828h0.16016c-0.058593 0.39844-0.058593 0.80078 0 1.1992 0.18359 1.0352 0.76563 1.9531 1.6211 2.5625 0.66016 0.48047 1.4609 0.74219 2.2812 0.73828 0.40625 0 0.80859-0.058594 1.1992-0.17969 0.22656 1.1523 0.94531 2.1484 1.9688 2.7227 1.0273 0.57031 2.25 0.66797 3.3516 0.25781 0.22656 0.92969 0.78125 1.7422 1.5586 2.3008 0.66406 0.47656 1.4648 0.72656 2.2812 0.71875h0.67969c1.0352-0.16406 1.957-0.74219 2.5586-1.6016v-0.12109 0.003906c2.2734 1.1914 4.7773 1.875 7.3398 2 0.89453-0.011719 1.7812-0.17188 2.6211-0.48047 1.4258-0.4375 2.625-1.4141 3.3398-2.7227h0.66016c1.1211 0.007813 2.2148-0.32422 3.1406-0.95703 1.0703-0.76562 1.8242-1.8984 2.1211-3.1797 1.2461-0.13281 2.4023-0.72656 3.2383-1.6602 0.625-0.71094 1.0938-1.5391 1.3789-2.4414 1.5703-0.14062 3.0117-0.91406 4-2.1406 0.62891-0.96094 0.83594-2.1406 0.58203-3.2578-0.10156-0.46094-0.27734-0.89844-0.51953-1.3008 1.8242-0.86328 3.4375-2.1211 4.7188-3.6797l1.1602 2c0.20313 0.35937 0.54297 0.625 0.94141 0.73828 0.13672 0.019531 0.27734 0.019531 0.41797 0 0.26562-0.007813 0.52734-0.074219 0.76172-0.19922l6-3.4219c0.35938-0.20312 0.625-0.53906 0.73828-0.9375 0.046874-0.36328-0.035157-0.73438-0.23828-1.0391zm-67.723 0.39844l-2 3.3789-5.2188-2.8203 12.641-22.18 5.2188 2.9805zm9.2812 10.762c-0.64453 0.83203-1.8242 1.0273-2.6992 0.4375-0.85547-0.63672-1.0586-1.8359-0.46094-2.7188l0.71875-1.0391 0.92188-1.2812c0.64062-0.86719 1.8516-1.0703 2.7383-0.46094 0.77734 0.57031 1.0391 1.6133 0.62109 2.4805zm4.3203 4.1406l-0.26172 0.35938c-0.24219 0.55078-0.71875 0.96484-1.3008 1.125-0.58203 0.16016-1.2031 0.046875-1.6953-0.30469-0.48828-0.35156-0.79688-0.90625-0.83203-1.5078-0.035157-0.60156 0.20312-1.1875 0.64844-1.5938l0.72266-0.98047 1.6406-2.3008 2.1602-3.0391h-0.003906c0.27734-0.45312 0.72656-0.78125 1.2461-0.90625 0.51562-0.12109 1.0625-0.035156 1.5156 0.24609 0.43359 0.29688 0.72266 0.76172 0.80078 1.2812 0.078124 0.51172-0.042969 1.0352-0.33984 1.457l-0.71875 1.0195zm5.3008 2.7617l-0.48047 0.66016v-0.003907c-0.24609 0.55469-0.73047 0.96875-1.3164 1.125-0.58594 0.15234-1.2148 0.035157-1.7031-0.32812-0.48828-0.35938-0.78516-0.92188-0.80859-1.5273-0.023438-0.60938 0.23047-1.1914 0.6875-1.5898l3.5781-5.0391c0.5-0.57031 1.2773-0.80859 2.0078-0.61719 0.73437 0.1875 1.2969 0.77734 1.4531 1.5156 0.10156 0.51172-0.019531 1.0469-0.33984 1.4609l-1.1992 1.6992zm6.7188 0.78125l-1.2617 1.7383-0.16016 0.23828-0.5 0.67969h0.003906c-0.64844 0.66406-1.668 0.79688-2.4648 0.32031-0.79297-0.47656-1.1562-1.4375-0.87891-2.3203l0.16016-0.26172 1.8984-2.6602h0.003906c0.64844-0.82813 1.8281-1.0117 2.6992-0.41797 0.86719 0.64062 1.0703 1.8516 0.46094 2.7383zm25.801-8.8008v-0.003906c-0.76562 0.78906-1.8047 1.2539-2.9023 1.3008l-11.82-7.3984 0.003906-0.003907c-0.46484-0.29687-1.082-0.16406-1.3828 0.30078-0.14453 0.22266-0.19531 0.49609-0.13281 0.75781 0.058594 0.26172 0.22266 0.48438 0.45312 0.62109l11.52 7.2383v0.003907c-0.20312 0.57812-0.52344 1.1094-0.9375 1.5586-0.60938 0.64453-1.457 1.0117-2.3398 1.0195l-10.441-5.8398c-0.48438-0.26953-1.0977-0.09375-1.3711 0.39062-0.26953 0.48438-0.09375 1.0977 0.39063 1.3711l10 5.5781c-0.17188 0.80859-0.64453 1.5234-1.3203 2-0.86719 0.57031-1.9375 0.74609-2.9375 0.48047h-0.12109c-0.0625-0.058593-0.12891-0.11328-0.19922-0.16016l-8-4c-0.48437-0.19922-1.043 0.003906-1.2773 0.47266-0.23828 0.46875-0.074219 1.0391 0.375 1.3086l7.6602 3.8594c-0.48047 0.71094-1.1836 1.2383-2 1.5-2.75 0.49609-5.5898-0.007812-8-1.4219l0.64062-0.97656c0.60547-0.85937 0.85156-1.9258 0.67969-2.9609-0.33203-1.8242-1.8711-3.1797-3.7188-3.2812 0.17969-0.60156 0.21875-1.2383 0.11719-1.8594-0.17578-1.0312-0.75-1.9492-1.5977-2.5586-0.72266-0.51562-1.5938-0.77734-2.4805-0.74219 0.058594-0.38281 0.058594-0.77344 0-1.1602-0.29688-1.5586-1.4883-2.7969-3.0352-3.1523s-3.1562 0.23828-4.1055 1.5117l-0.17969 0.23828v0.003906c-0.27344-0.625-0.71875-1.1562-1.2812-1.5391-1.7812-1.2461-4.2344-0.83984-5.5195 0.91797l-0.16016 0.19922c-1.4336-1.4688-2.7695-3.0352-4-4.6797l8.7188-15.32h0.003906c1.2773 1.2734 2.8398 2.2266 4.5586 2.7812l2 0.28125c-1.043 1.3438-1.7812 2.8984-2.1602 4.5586-0.36328 1.5039 0.085937 3.0859 1.1797 4.1797 1.043 1.0547 2.5508 1.5078 4 1.1992 1.5234-0.30859 2.8945-1.1328 3.8789-2.3398l2-2.6602 2.8203-0.73828c7.8867 3.5273 15.176 8.25 21.621 14h0.12109c0.058593 0.070312 0.125 0.12891 0.19922 0.17969 0.40625 0.30078 0.6875 0.74219 0.78125 1.2383 0.14062 0.59766 0.03125 1.2266-0.30078 1.7422zm0.26172-4.9805l-0.003906-0.003906c-6.5898-5.8594-14.059-10.645-22.137-14.18-0.1875-0.039063-0.37891-0.039063-0.5625 0-0.13281-0.019531-0.26562-0.019531-0.39844 0l-3.1016 0.82031c-0.33203 0.09375-0.625 0.28906-0.83984 0.55859l-2 2.7617c-0.70312 0.83594-1.668 1.4102-2.7383 1.6406-0.80078 0.16797-1.6289-0.082031-2.1992-0.66016-0.60938-0.61719-0.85938-1.5-0.66016-2.3398 0.44141-1.9414 1.4727-3.6953 2.957-5.0234 1.0781-0.95312 2.3008-1.7305 3.6211-2.2969 6.5195-2.8594 13.461-0.98047 17.602 0.14062v-0.003906c1.0234 0.32031 2.0742 0.55469 3.1367 0.70312 1.4062 0.14844 2.8203-0.19141 4-0.96094l8.4414 14.84c-1.2969 1.7969-3.0781 3.1836-5.1406 4zm8.8789-1.4805l-1.8789-3.3008-8.8203-15.5-1.8984-3.3398 5.1953-3.043 12.602 22.199z"/>
</svg>
