<?xml version="1.0" encoding="UTF-8"?>
<svg width="80px" height="96px" viewBox="0 0 80 96" version="1.1" xmlns="http://www.w3.org/2000/svg" xmlns:xlink="http://www.w3.org/1999/xlink">
    <!-- Generator: Sketch 51.2 (57519) - http://www.bohemiancoding.com/sketch -->
    <title>np_document_150017_929496</title>
    <desc>Created with Sketch.</desc>
    <defs></defs>
    <g id="Page-1" stroke="none" stroke-width="1" fill="none" fill-rule="evenodd">
        <g id="app_landing_list-copy" transform="translate(-174.000000, -211.000000)" fill-rule="nonzero">
            <g id="np_document_150017_929496" transform="translate(173.000000, 211.000000)">
                <polygon id="Shape" fill="#878787" points="17 63 57 63 57 65 17 65"></polygon>
                <polygon id="Shape" fill="#878787" points="17 55 57 55 57 57 17 57"></polygon>
                <polygon id="Shape" fill="#878787" points="17 71 57 71 57 73 17 73"></polygon>
                <polygon id="Shape" fill="#878787" points="17 47 57 47 57 49 17 49"></polygon>
                <path d="M61,0 C49.953,0 41,8.9531 41,20 C41,31.0469 49.9531,40 61,40 C72.0469,40 81,31.0469 81,20 C81,8.9531 72.0469,0 61,0 Z M69.6914,15.734 L59.2144,26.843 L57.8628,28.2727 L52.3472,22.7571 L50.9995,21.4055 L53.6987,18.7063 L57.7885,22.7961 L66.9135,13.1125 L68.2221,11.7219 L70.9994,14.3469 L69.6914,15.734 Z" id="Shape" fill="#1BBF5A"></path>
                <path d="M17,31 L17,33 L38.52,33 C38.145,32.35156 37.79734,31.6836 37.477,31 L17,31 Z" id="Shape" fill="#878787"></path>
                <path d="M17,39 L17,41 L45.734,41 C44.88634,40.38281 44.0778,39.7148 43.3082,39 L17,39 Z" id="Shape" fill="#878787"></path>
                <path d="M69,90 C69,91.1016 68.10156,92 67,92 L7,92 C5.8984,92 5,91.10156 5,90 L5,14 C5,12.8984 5.89844,12 7,12 L36.273,12 C36.72222,10.6133 37.2925,9.2773 37.9605,8 L6.9995,8 C3.687,8 0.9995,10.6875 0.9995,14 L0.9995,90 C0.9995,93.3125 3.687,96 6.9995,96 L66.9995,96 C70.312,96 72.9995,93.3125 72.9995,90 L72.9995,43.043 C71.7222,43.71097 70.3862,44.2774 68.9995,44.7305 L69,90 Z" id="Shape" fill="#878787"></path>
            </g>
        </g>
    </g>
</svg>