<?xml version="1.0" encoding="UTF-8"?>
<svg fill="#14AD62" width="100pt" height="100pt" version="1.1" viewBox="0 0 100 100" xmlns="http://www.w3.org/2000/svg">
 <path d="m51.441 42.371c1.7656 0.33203 3.3203 1.2578 4.4453 2.5664l23.359-13.488c-0.74609-2.1914-0.49609-4.5469 0.61719-6.4688-7.707-4.4492-15.418-8.8984-23.125-13.348-1.1094 1.9336-3.0273 3.3398-5.293 3.7656v26.973zm30.484-19.707c3.7227-2.7695 9.043-1.7109 11.375 2.3359 2.3281 4.0352 0.59766 9.1836-3.6562 11.02v27.965c4.2539 1.832 5.9883 6.9844 3.6562 11.016-2.332 4.043-7.6523 5.1133-11.375 2.3359-8.0742 4.6602-16.137 9.3203-24.211 13.98 0.53516 4.6133-3.043 8.6836-7.7148 8.6836-4.6836 0-8.2305-4.0625-7.7109-8.6836-8.0742-4.6602-16.137-9.3203-24.211-13.98-3.7266 2.7695-9.043 1.7109-11.379-2.3359-2.3359-4.043-0.58984-9.168 3.6602-11.016v-27.965c-4.2539-1.832-5.9883-6.9844-3.6562-11.02 2.3398-4.0508 7.6406-5.1016 11.375-2.3359 8.0742-4.6602 16.137-9.3203 24.211-13.98-0.53906-4.6133 3.043-8.6836 7.7109-8.6836 4.6797 0 8.2344 4.0625 7.7109 8.6836 8.0742 4.6602 16.137 9.3203 24.211 13.98zm-61.785 2.3164c1.1172 1.9297 1.3789 4.293 0.61719 6.4727l23.359 13.488c1.125-1.3086 2.6797-2.2383 4.4453-2.5664v-26.973c-2.2578-0.42578-4.1836-1.832-5.293-3.7656-7.707 4.4531-15.418 8.8984-23.125 13.348zm66.453 11.668c-2.2266 0.003906-4.4062-0.95313-5.9062-2.7031l-23.359 13.484c0.57812 1.6484 0.58203 3.4844 0 5.1328l23.359 13.484c1.5078-1.7695 3.6797-2.7109 5.9023-2.7031v-26.699zm-6.7305 38.371c-1.1172-1.9297-1.3789-4.293-0.61719-6.4727l-23.355-13.488c-1.125 1.3086-2.6797 2.2383-4.4453 2.5664v26.973c2.25 0.42578 4.1797 1.8281 5.293 3.7656 7.707-4.4531 15.418-8.8984 23.125-13.348zm-66.453-11.668c2.2266-0.003906 4.4062 0.95313 5.9062 2.7031l23.355-13.484c-0.57812-1.6484-0.57812-3.4844 0-5.1328l-23.359-13.484c-1.5078 1.7695-3.6758 2.707-5.9023 2.7031v26.699zm29.859 25.02c1.1094-1.9297 3.0273-3.3398 5.293-3.7656v-26.973c-1.7656-0.33203-3.3203-1.2578-4.4453-2.5664l-23.359 13.488c0.76563 2.1758 0.50391 4.543-0.61719 6.4688 7.707 4.4531 15.418 8.8984 23.129 13.348zm6.7305 8.582c2.6094 0 4.7188-2.1094 4.7188-4.7148s-2.1094-4.7188-4.7188-4.7148c-2.6055 0-4.7148 2.1094-4.7148 4.7148s2.1094 4.7148 4.7148 4.7148zm-40.66-23.477c1.3047 2.2578 4.1836 3.0312 6.4414 1.7266s3.0312-4.1836 1.7266-6.4414c-1.3047-2.2578-4.1836-3.0273-6.4414-1.7266-2.2578 1.3047-3.0273 4.1836-1.7266 6.4414zm0-46.949c-1.3047 2.2578-0.53125 5.1367 1.7266 6.4414 2.2578 1.3047 5.1406 0.53125 6.4414-1.7266 1.3047-2.2578 0.53125-5.1367-1.7266-6.4414-2.2578-1.3047-5.1367-0.53125-6.4414 1.7266zm81.32 46.949c1.3047-2.2578 0.53125-5.1367-1.7266-6.4414-2.2578-1.3047-5.1406-0.53125-6.4414 1.7266-1.3047 2.2578-0.53125 5.1367 1.7266 6.4414s5.1367 0.53125 6.4414-1.7266zm0-46.949c-1.3047-2.2578-4.1836-3.0273-6.4414-1.7266-2.2578 1.3047-3.0312 4.1836-1.7266 6.4414 1.3008 2.2578 4.1836 3.0312 6.4414 1.7266 2.2578-1.3047 3.0273-4.1836 1.7266-6.4414zm-40.66-23.477c-2.6055 0-4.7148 2.1094-4.7148 4.7148s2.1094 4.7148 4.7148 4.7148 4.7148-2.1094 4.7148-4.7148-2.1094-4.7148-4.7148-4.7148zm0 42.234c-2.6055 0-4.7148 2.1094-4.7148 4.7148s2.1094 4.7148 4.7148 4.7148 4.7148-2.1094 4.7148-4.7148-2.1094-4.7148-4.7148-4.7148z"/>
</svg>
