<?xml version="1.0" encoding="UTF-8"?>
<svg fill="#14AD62" width="100pt" height="100pt" version="1.1" viewBox="0 0 100 100" xmlns="http://www.w3.org/2000/svg">
 <path d="m50 50h-14.582v-12.5c0-8.125 6.457-14.582 14.582-14.582s14.582 6.457 14.582 14.582v4.168h8.332v-4.168c0-12.707-10.207-22.918-22.918-22.918-12.707 0-22.918 10.207-22.918 22.918v12.5h-8.3281v33.332h62.5v-33.332zm2.082 16.043v6.875h-4.168v-6.875c-1.25-0.625-2.082-2.082-2.082-3.543 0-2.293 1.875-4.168 4.168-4.168s4.168 1.875 4.168 4.168c0 1.457-0.83594 2.918-2.0859 3.543z"/>
</svg>
