<?xml version="1.0" encoding="UTF-8"?>
<svg fill="#CCCCCC" width="100pt" height="100pt" version="1.1" viewBox="0 0 100 100" xmlns="http://www.w3.org/2000/svg">
 <path d="m54.438 50 25.895-25.918c1.1484-1.2305 1.1133-3.1484-0.074219-4.3398-1.1914-1.1875-3.1094-1.2227-4.3398-0.074219l-25.918 25.852-25.918-25.852c-1.2305-1.1484-3.1484-1.1133-4.3398 0.074219-1.1875 1.1914-1.2227 3.1094-0.074219 4.3398l25.938 25.918-25.938 25.918c-0.58984 0.58203-0.92578 1.3789-0.92578 2.207s0.33594 1.625 0.92578 2.207c1.2188 1.2188 3.1953 1.2188 4.4141 0l25.918-25.977 25.918 25.977c1.2188 1.2188 3.1953 1.2188 4.4141 0 0.58984-0.58203 0.92578-1.3789 0.92578-2.207s-0.33594-1.625-0.92578-2.207z"/>
</svg>
