<?xml version="1.0" encoding="UTF-8"?>
<svg width="12px" height="18px" viewBox="0 0 12 18" version="1.1" xmlns="http://www.w3.org/2000/svg" xmlns:xlink="http://www.w3.org/1999/xlink">
    <!-- Generator: Sketch 51.1 (57501) - http://www.bohemiancoding.com/sketch -->
    <title>np_lock_629417_062031 copy</title>
    <desc>Created with Sketch.</desc>
    <defs></defs>
    <g id="Page-1" stroke="none" stroke-width="1" fill="none" fill-rule="evenodd">
        <g id="trip-closure" transform="translate(-457.000000, -486.000000)" fill="#FFFFFF" fill-rule="nonzero">
            <g id="np_lock_629417_062031-copy" transform="translate(457.000000, 486.000000)">
                <path d="M10.4513077,7.13492308 L9.95642308,7.13492308 L9.95732469,4.13030769 C9.95732469,1.94792308 8.18238623,0.173076923 6.00009392,0.173076923 C3.81780162,0.173076923 2.04286315,1.94801538 2.04286315,4.13030769 L2.04286315,7.13492308 L1.54797854,7.13492308 C0.697017,7.13492308 0.00650930769,7.82453077 0.00650930769,8.67639231 L0.00650930769,15.8249308 C0.00650930769,16.6758923 0.696117,17.3664 1.54797854,17.3664 L10.451517,17.3664 C11.3024785,17.3664 11.9929862,16.6767923 11.9929862,15.8249308 L11.9929862,8.6757 C11.9929862,7.82473846 11.3033785,7.13513077 10.451517,7.13513077 L10.4513077,7.13492308 Z M3.42715385,4.13030769 C3.42715385,2.71144615 4.5819,1.55769231 5.99976923,1.55769231 C7.41763846,1.55769231 8.57238462,2.71243846 8.57238462,4.13030769 L8.57238462,7.13492308 L3.42692308,7.13492308 L3.42715385,4.13030769 Z M6.78853846,12.1721538 L6.78853846,14.0967231 C6.78853846,14.5321154 6.43608462,14.8845923 5.99976923,14.8845923 C5.56437692,14.8845923 5.2119,14.5321385 5.2119,14.0967231 L5.2119,12.1721538 C4.8423,11.9197385 4.60073077,11.4960692 4.60073077,11.0156077 C4.60073077,10.2421615 5.22722308,9.61566923 6.00066923,9.61566923 C6.77411538,9.61566923 7.40060769,10.2430846 7.40060769,11.0156077 C7.39970631,11.4960692 7.15721538,11.9197615 6.78853846,12.1721538 Z" id="Shape"></path>
            </g>
        </g>
    </g>
</svg>